<svg width="140" height="48" viewBox="0 0 140 48" fill="none" xmlns="http://www.w3.org/2000/svg">
<path d="M22.1796 46.1545C22.1796 47.174 23.0072 48 24.0279 48C25.0487 48 25.8763 47.174 25.8763 46.1545C25.8763 45.1347 25.0487 44.3072 24.0279 44.3072C23.0072 44.3072 22.1796 45.1347 22.1796 46.1545ZM21.2556 36C21.2556 37.5295 22.4967 38.7685 24.0279 38.7685C25.5592 38.7685 26.8003 37.5295 26.8003 36C26.8003 34.4705 25.5592 33.2317 24.0279 33.2317C22.4967 33.2317 21.2556 34.4705 21.2556 36ZM3.69665 24C3.69665 22.9804 2.86909 22.1544 1.84833 22.1544C0.827606 22.1544 0 22.9804 0 24C0 25.0196 0.827606 25.8456 1.84833 25.8456C2.86909 25.8456 3.69665 25.0196 3.69665 24ZM14.7865 12C14.7865 10.4705 13.5451 9.22991 12.0139 9.22991C10.4828 9.22991 9.24148 10.4705 9.24148 12C9.24148 13.5295 10.4828 14.7683 12.0139 14.7683C13.5451 14.7683 14.7865 13.5295 14.7865 12ZM14.7865 24C14.7865 22.4705 13.5451 21.2299 12.0139 21.2299C10.4828 21.2299 9.24148 22.4705 9.24148 24C9.24148 25.5295 10.4828 26.7686 12.0139 26.7686C13.5451 26.7686 14.7865 25.5295 14.7865 24ZM14.7865 36C14.7865 34.4705 13.5451 33.2317 12.0139 33.2317C10.4828 33.2317 9.24148 34.4705 9.24148 36C9.24148 37.5295 10.4828 38.7685 12.0139 38.7685C13.5451 38.7685 14.7865 37.5295 14.7865 36ZM25.8763 1.84552C25.8763 0.825973 25.0487 0 24.0279 0C23.0072 0 22.1796 0.825973 22.1796 1.84552C22.1796 2.86535 23.0072 3.69132 24.0279 3.69132C25.0487 3.69132 25.8763 2.86535 25.8763 1.84552ZM26.8003 12C26.8003 10.4705 25.5592 9.22991 24.0279 9.22991C22.4967 9.22991 21.2556 10.4705 21.2556 12C21.2556 13.5295 22.4967 14.7683 24.0279 14.7683C25.5592 14.7683 26.8003 13.5295 26.8003 12ZM27.7246 24C27.7246 21.9606 26.0694 20.3069 24.0279 20.3069C21.9864 20.3069 20.3312 21.9606 20.3312 24C20.3312 26.0394 21.9864 27.6931 24.0279 27.6931C26.0694 27.6931 27.7246 26.0394 27.7246 24ZM38.8144 12C38.8144 10.4705 37.573 9.22991 36.042 9.22991C34.5108 9.22991 33.2694 10.4705 33.2694 12C33.2694 13.5295 34.5108 14.7683 36.042 14.7683C37.573 14.7683 38.8144 13.5295 38.8144 12ZM38.8144 24C38.8144 22.4705 37.573 21.2299 36.042 21.2299C34.5108 21.2299 33.2694 22.4705 33.2694 24C33.2694 25.5295 34.5108 26.7686 36.042 26.7686C37.573 26.7686 38.8144 25.5295 38.8144 24ZM48.0559 24C48.0559 22.9804 47.2283 22.1544 46.2075 22.1544C45.1868 22.1544 44.3592 22.9804 44.3592 24C44.3592 25.0196 45.1868 25.8456 46.2075 25.8456C47.2283 25.8456 48.0559 25.0196 48.0559 24Z" fill="#7D5FFF"/>
<path d="M106.241 33.5139H103.795V47.7147H106.241V33.5139ZM44.7292 39.3362H35.8573C36.3122 36.5524 38.3879 35.3884 40.4068 35.3884C42.5396 35.3884 44.2742 36.6954 44.7292 39.3362ZM47.3166 41.2686C47.6296 36.8652 44.985 33.23 40.4921 33.23C36.0278 33.23 33.2695 36.4386 33.2695 40.6142C33.2695 44.8459 36.2837 47.9986 40.4353 47.9986C44.0466 47.9986 46.4068 45.8979 47.0893 43.398H44.5869C43.7053 45.1026 42.2551 45.7841 40.4638 45.7841C37.8761 45.7841 35.8287 43.8517 35.7434 41.2686H47.3166ZM60.4447 47.7147H62.8617V38.9675C62.8617 35.4445 60.6721 33.23 57.4874 33.23C55.6391 33.23 53.9612 33.9964 52.966 35.701V33.5139H50.5205V47.7147H52.966V40.6721C52.966 37.3479 54.8143 35.4735 57.0893 35.4735C59.1081 35.4735 60.4447 36.9503 60.4447 39.3362V47.7147ZM83.9876 47.7147H86.4331V33.5139H83.9876V40.5583C83.9876 43.8245 82.2247 45.7552 80.035 45.7552C78.073 45.7552 76.8218 44.2494 76.8218 41.865V33.5139H69.9789V32.0658C69.9789 30.2474 70.7466 29.651 72.339 29.651H74.3764V27.4075H71.884C69.3817 27.4075 67.5334 28.8556 67.5334 31.8093V33.5139H64.5192V35.7571H67.5334V47.7147H69.9789V35.7571H74.3764V42.2339C74.3764 45.7552 76.5091 47.9986 79.6084 47.9986C81.4284 47.9986 83.0492 47.2031 83.9876 45.5274V47.7147ZM92.5407 37.0351C92.5407 35.9287 93.6213 35.2744 94.9862 35.2744C96.3227 35.2744 97.3463 36.041 97.7161 37.2918H100.162C99.934 35.0197 98.0005 33.23 94.9862 33.23C92.1428 33.23 90.0668 34.7069 90.0668 37.0641C90.0668 39.1084 91.2612 40.5855 93.735 41.2396L95.7824 41.7784C97.4885 42.2339 98.1425 42.9155 98.1425 44.0506C98.1425 45.3014 96.9767 45.9251 95.4128 45.9251C93.9626 45.9251 92.427 45.3286 92.1143 43.5968H89.6119C89.8393 46.4656 92.3133 47.9986 95.3843 47.9986C98.3416 47.9986 100.617 46.7206 100.617 43.8807C100.617 41.7223 99.3654 40.2744 96.9767 39.678L94.702 39.0812C93.1949 38.6549 92.5407 38.0871 92.5407 37.0351ZM106.866 28.5294C106.866 27.5096 106.039 26.6836 105.018 26.6836C103.997 26.6836 103.17 27.5096 103.17 28.5294C103.17 29.5489 103.997 30.3749 105.018 30.3749C106.039 30.3749 106.866 29.5489 106.866 28.5294ZM121.789 40.6142C121.789 43.4541 119.827 45.7263 116.87 45.7263C113.912 45.7263 111.922 43.4541 111.922 40.6142C111.922 37.7745 113.912 35.5022 116.87 35.5022C119.827 35.5022 121.789 37.7745 121.789 40.6142ZM124.291 40.6142C124.291 36.5253 121.135 33.23 116.87 33.23C112.547 33.23 109.42 36.5253 109.42 40.6142C109.42 44.7049 112.547 47.9986 116.87 47.9986C121.135 47.9986 124.291 44.7049 124.291 40.6142ZM139.811 47.7147V38.9675C139.811 35.4445 137.622 33.23 134.437 33.23C132.589 33.23 130.911 33.9964 129.916 35.701V33.5139H127.47V47.7147H129.916V40.6721C129.916 37.3479 131.764 35.4735 134.039 35.4735C136.058 35.4735 137.394 36.9503 137.394 39.3362V47.7147H139.811Z" fill="#1E1A34"/>
</svg>
