<svg width="40" height="40" viewBox="0 0 40 40" fill="none" xmlns="http://www.w3.org/2000/svg">
<path d="M14 6H10C8.93913 6 7.92172 6.42143 7.17157 7.17157C6.42143 7.92172 6 8.93913 6 10V34C6 35.0609 6.42143 36.0783 7.17157 36.8284C7.92172 37.5786 8.93913 38 10 38H30C31.0609 38 32.0783 37.5786 32.8284 36.8284C33.5786 36.0783 34 35.0609 34 34V10C34 8.93913 33.5786 7.92172 32.8284 7.17157C32.0783 6.42143 31.0609 6 30 6H26" stroke="#99B0F6" stroke-width="2" stroke-linecap="round" stroke-linejoin="round"/>
<path d="M23 3H17C15.3431 3 14 4.34315 14 6C14 7.65685 15.3431 9 17 9H23C24.6569 9 26 7.65685 26 6C26 4.34315 24.6569 3 23 3Z" stroke="#99B0F6" stroke-width="2" stroke-linecap="round" stroke-linejoin="round"/>
<path d="M24 18H19C18.2044 18 17.4413 18.3161 16.8787 18.8787C16.3161 19.4413 16 20.2044 16 21C16 21.7956 16.3161 22.5587 16.8787 23.1213C17.4413 23.6839 18.2044 24 19 24H21C21.7956 24 22.5587 24.3161 23.1213 24.8787C23.6839 25.4413 24 26.2044 24 27C24 27.7956 23.6839 28.5587 23.1213 29.1213C22.5587 29.6839 21.7956 30 21 30H16" stroke="#99B0F6" stroke-width="2" stroke-linecap="round" stroke-linejoin="round"/>
<path d="M20 16V18M20 30V32V30Z" stroke="#99B0F6" stroke-width="2" stroke-linecap="round" stroke-linejoin="round"/>
</svg>
