<svg width="40" height="40" viewBox="0 0 40 40" fill="none" xmlns="http://www.w3.org/2000/svg">
<path d="M26 20C26 16.6863 23.3137 14 20 14C16.6863 14 14 16.6863 14 20C14 23.3137 16.6863 26 20 26C23.3137 26 26 23.3137 26 20Z" stroke="#7D5FFF" stroke-width="2" stroke-linecap="round" stroke-linejoin="round"/>
<path d="M3 22C4.10457 22 5 21.1046 5 20C5 18.8954 4.10457 18 3 18C1.89543 18 1 18.8954 1 20C1 21.1046 1.89543 22 3 22Z" stroke="#7D5FFF" stroke-width="2" stroke-linecap="round" stroke-linejoin="round"/>
<path d="M37 22C38.1046 22 39 21.1046 39 20C39 18.8954 38.1046 18 37 18C35.8954 18 35 18.8954 35 20C35 21.1046 35.8954 22 37 22Z" stroke="#7D5FFF" stroke-width="2" stroke-linecap="round" stroke-linejoin="round"/>
<path d="M5 20L14 20" stroke="#7D5FFF" stroke-width="2" stroke-linecap="round" stroke-linejoin="round"/>
<path d="M26 20L35 20" stroke="#7D5FFF" stroke-width="2" stroke-linecap="round" stroke-linejoin="round"/>
<path d="M18 3C18 4.10457 18.8954 5 20 5C21.1046 5 22 4.10457 22 3C22 1.89543 21.1046 1 20 1C18.8954 1 18 1.89543 18 3Z" stroke="#7D5FFF" stroke-width="2" stroke-linecap="round" stroke-linejoin="round"/>
<path d="M18 37C18 38.1046 18.8954 39 20 39C21.1046 39 22 38.1046 22 37C22 35.8954 21.1046 35 20 35C18.8954 35 18 35.8954 18 37Z" stroke="#7D5FFF" stroke-width="2" stroke-linecap="round" stroke-linejoin="round"/>
<path d="M20 5L20 14" stroke="#7D5FFF" stroke-width="2" stroke-linecap="round" stroke-linejoin="round"/>
<path d="M20 26L20 35" stroke="#7D5FFF" stroke-width="2" stroke-linecap="round" stroke-linejoin="round"/>
<path d="M28 10C28 11.1046 28.8954 12 30 12C31.1046 12 32 11.1046 32 10C32 8.89543 31.1046 8 30 8C28.8954 8 28 8.89543 28 10Z" stroke="#7D5FFF" stroke-width="2" stroke-linecap="round" stroke-linejoin="round"/>
<path d="M10 28C8.89543 28 8 28.8954 8 30C8 31.1046 8.89543 32 10 32C11.1046 32 12 31.1046 12 30C12 28.8954 11.1046 28 10 28Z" stroke="#7D5FFF" stroke-width="2" stroke-linecap="round" stroke-linejoin="round"/>
<path d="M30 28C28.8954 28 28 28.8954 28 30C28 31.1046 28.8954 32 30 32C31.1046 32 32 31.1046 32 30C32 28.8954 31.1046 28 30 28Z" stroke="#7D5FFF" stroke-width="2" stroke-linecap="round" stroke-linejoin="round"/>
<path d="M12 10C12 8.89543 11.1046 8 10 8C8.89543 8 8 8.89543 8 10C8 11.1046 8.89543 12 10 12C11.1046 12 12 11.1046 12 10Z" stroke="#7D5FFF" stroke-width="2" stroke-linecap="round" stroke-linejoin="round"/>
</svg>
