<svg width="40" height="40" viewBox="0 0 40 40" fill="none" xmlns="http://www.w3.org/2000/svg">
<path d="M27.325 19.317C27.751 17.561 30.249 17.561 30.675 19.317C30.7389 19.5808 30.8642 19.8258 31.0407 20.032C31.2172 20.2382 31.4399 20.3999 31.6907 20.5037C31.9414 20.6076 32.2132 20.6509 32.4838 20.6299C32.7544 20.6089 33.0162 20.5243 33.248 20.383C34.791 19.443 36.558 21.209 35.618 22.753C35.4769 22.9847 35.3924 23.2463 35.3715 23.5168C35.3506 23.7872 35.3938 24.0588 35.4975 24.3094C35.6013 24.56 35.7627 24.7826 35.9687 24.9591C36.1747 25.1355 36.4194 25.2609 36.683 25.325C38.439 25.751 38.439 28.249 36.683 28.675C36.4192 28.7389 36.1742 28.8642 35.968 29.0407C35.7618 29.2172 35.6001 29.4399 35.4963 29.6907C35.3924 29.9414 35.3491 30.2132 35.3701 30.4838C35.3911 30.7544 35.4757 31.0162 35.617 31.248C36.557 32.791 34.791 34.558 33.247 33.618C33.0153 33.4769 32.7537 33.3924 32.4832 33.3715C32.2128 33.3506 31.9412 33.3938 31.6906 33.4975C31.44 33.6013 31.2174 33.7627 31.0409 33.9687C30.8645 34.1747 30.7391 34.4194 30.675 34.683C30.249 36.439 27.751 36.439 27.325 34.683C27.2611 34.4192 27.1358 34.1742 26.9593 33.968C26.7828 33.7618 26.5601 33.6001 26.3093 33.4963C26.0586 33.3924 25.7868 33.3491 25.5162 33.3701C25.2456 33.3911 24.9838 33.4757 24.752 33.617C23.209 34.557 21.442 32.791 22.382 31.247C22.5231 31.0153 22.6076 30.7537 22.6285 30.4832C22.6494 30.2128 22.6062 29.9412 22.5025 29.6906C22.3987 29.44 22.2373 29.2174 22.0313 29.0409C21.8253 28.8645 21.5806 28.7391 21.317 28.675C19.561 28.249 19.561 25.751 21.317 25.325C21.5808 25.2611 21.8258 25.1358 22.032 24.9593C22.2382 24.7828 22.3999 24.5601 22.5037 24.3093C22.6076 24.0586 22.6509 23.7868 22.6299 23.5162C22.6089 23.2456 22.5243 22.9838 22.383 22.752C21.443 21.209 23.209 19.442 24.753 20.382C25.753 20.99 27.049 20.452 27.325 19.317Z" stroke="#7D5FFF" stroke-width="2" stroke-linecap="round" stroke-linejoin="round"/>
<path d="M33 15V6C33 4.89543 32.1046 4 31 4H4C2.89543 4 2 4.89543 2 6V29C2 30.1046 2.89543 31 4 31H17" stroke="#7D5FFF" stroke-width="2" stroke-linecap="round" stroke-linejoin="round"/>
<path d="M2 12L33 12" stroke="#7D5FFF" stroke-width="2" stroke-linecap="round" stroke-linejoin="round"/>
<circle cx="6" cy="8" r="1" fill="#7D5FFF"/>
<circle cx="10" cy="8" r="1" fill="#7D5FFF"/>
<circle cx="14" cy="8" r="1" fill="#7D5FFF"/>
<path d="M29 29C30.1046 29 31 28.1046 31 27C31 25.8954 30.1046 25 29 25C27.8954 25 27 25.8954 27 27C27 28.1046 27.8954 29 29 29Z" stroke="#7D5FFF" stroke-width="2" stroke-linecap="round" stroke-linejoin="round"/>
</svg>
