<svg width="40" height="40" viewBox="0 0 40 40" fill="none" xmlns="http://www.w3.org/2000/svg">
<path d="M28 26C28 27.1046 27.1046 28 26 28H14C12.8954 28 12 27.1046 12 26L12 14C12 12.8954 12.8954 12 14 12H26C27.1046 12 28 12.8954 28 14V26Z" stroke="#99B0F6" stroke-width="2" strokeMiterlimit="8" stroke-linecap="round" stroke-linejoin="round"/>
<path d="M23 5L23 12" stroke="#99B0F6" stroke-width="2" stroke-linecap="round" stroke-linejoin="round"/>
<path d="M17 12V8H14H11" stroke="#99B0F6" stroke-width="2" stroke-linecap="round" stroke-linejoin="round"/>
<path d="M23 5C24.1046 5 25 4.10457 25 3C25 1.89543 24.1046 1 23 1C21.8954 1 21 1.89543 21 3C21 4.10457 21.8954 5 23 5Z" stroke="#99B0F6" stroke-width="2" stroke-linecap="round" stroke-linejoin="round"/>
<path d="M9 10C10.1046 10 11 9.10457 11 8C11 6.89543 10.1046 6 9 6C7.89543 6 7 6.89543 7 8C7 9.10457 7.89543 10 9 10Z" stroke="#99B0F6" stroke-width="2" stroke-linecap="round" stroke-linejoin="round"/>
<path d="M5 17L12 17" stroke="#99B0F6" stroke-width="2" stroke-linecap="round" stroke-linejoin="round"/>
<path d="M12 23L8 23L8 26L8 29" stroke="#99B0F6" stroke-width="2" stroke-linecap="round" stroke-linejoin="round"/>
<path d="M5 17C5 15.8954 4.10457 15 3 15C1.89543 15 1 15.8954 1 17C1 18.1046 1.89543 19 3 19C4.10457 19 5 18.1046 5 17Z" stroke="#99B0F6" stroke-width="2" stroke-linecap="round" stroke-linejoin="round"/>
<path d="M10 31C10 29.8954 9.10457 29 8 29C6.89543 29 6 29.8954 6 31C6 32.1046 6.89543 33 8 33C9.10457 33 10 32.1046 10 31Z" stroke="#99B0F6" stroke-width="2" stroke-linecap="round" stroke-linejoin="round"/>
<path d="M17 35L17 28" stroke="#99B0F6" stroke-width="2" stroke-linecap="round" stroke-linejoin="round"/>
<path d="M35 23H28" stroke="#99B0F6" stroke-width="2" stroke-linecap="round" stroke-linejoin="round"/>
<path d="M23 28L23 32L26 32L29 32" stroke="#99B0F6" stroke-width="2" stroke-linecap="round" stroke-linejoin="round"/>
<path d="M28 17L32 17L32 14L32 11" stroke="#99B0F6" stroke-width="2" stroke-linecap="round" stroke-linejoin="round"/>
<path d="M17 35C15.8954 35 15 35.8954 15 37C15 38.1046 15.8954 39 17 39C18.1046 39 19 38.1046 19 37C19 35.8954 18.1046 35 17 35Z" stroke="#99B0F6" stroke-width="2" stroke-linecap="round" stroke-linejoin="round"/>
<path d="M35 23C35 24.1046 35.8954 25 37 25C38.1046 25 39 24.1046 39 23C39 21.8954 38.1046 21 37 21C35.8954 21 35 21.8954 35 23Z" stroke="#99B0F6" stroke-width="2" stroke-linecap="round" stroke-linejoin="round"/>
<path d="M31 30C29.8954 30 29 30.8954 29 32C29 33.1046 29.8954 34 31 34C32.1046 34 33 33.1046 33 32C33 30.8954 32.1046 30 31 30Z" stroke="#99B0F6" stroke-width="2" stroke-linecap="round" stroke-linejoin="round"/>
<path d="M30 9C30 10.1046 30.8954 11 32 11C33.1046 11 34 10.1046 34 9C34 7.89543 33.1046 7 32 7C30.8954 7 30 7.89543 30 9Z" stroke="#99B0F6" stroke-width="2" stroke-linecap="round" stroke-linejoin="round"/>
</svg>
