<svg width="40" height="40" viewBox="0 0 40 40" fill="none" xmlns="http://www.w3.org/2000/svg">
<path d="M20 14C28.8366 14 36 11.3137 36 8C36 4.68629 28.8366 2 20 2C11.1634 2 4 4.68629 4 8C4 11.3137 11.1634 14 20 14Z" stroke="#7D5FFF" stroke-width="2" strokeMiterlimit="8" stroke-linecap="round" stroke-linejoin="round"/>
<path d="M4 8V32C4 34.3724 7.67152 36.4231 13 37.3968M36 8V25" stroke="#7D5FFF" stroke-width="2" strokeMiterlimit="8" stroke-linecap="round" stroke-linejoin="round"/>
<path d="M4 16C4 19.3138 11.1634 22 20 22C28.8366 22 36 19.3138 36 16" stroke="#7D5FFF" stroke-width="2" strokeMiterlimit="8" stroke-linecap="round" stroke-linejoin="round"/>
<path d="M4 24C4 26.3724 7.67152 28.4231 13 29.3968" stroke="#7D5FFF" stroke-width="2" strokeMiterlimit="8" stroke-linecap="round" stroke-linejoin="round"/>
<path d="M22.1912 38C19.8764 38 18 36.1474 18 33.8624C18 31.5773 19.8764 29.7248 22.1912 29.7248C22.7378 27.211 25.3748 25.5851 28.081 26.0928C30.7872 26.6006 32.5378 29.05 31.991 31.5637H32.8818C34.604 31.5637 36 33.0045 36 34.7818C36 36.559 34.604 38 32.8818 38H22.1912" stroke="#7D5FFF" stroke-width="2" stroke-linecap="round" stroke-linejoin="round"/>
</svg>
