<svg width="40" height="40" viewBox="0 0 40 40" fill="none" xmlns="http://www.w3.org/2000/svg">
<path d="M10 8H6C4.89543 8 4 8.89543 4 10V16C4 17.1046 4.89543 18 6 18H10C11.1046 18 12 17.1046 12 16V10C12 8.89543 11.1046 8 10 8Z" stroke="#99B0F6" stroke-width="2" stroke-linecap="round" stroke-linejoin="round"/>
<path d="M8 4V8" stroke="#99B0F6" stroke-width="2" stroke-linecap="round" stroke-linejoin="round"/>
<path d="M8 18V36" stroke="#99B0F6" stroke-width="2" stroke-linecap="round" stroke-linejoin="round"/>
<path d="M22 22H18C16.8954 22 16 22.8954 16 24V30C16 31.1046 16.8954 32 18 32H22C23.1046 32 24 31.1046 24 30V24C24 22.8954 23.1046 22 22 22Z" stroke="#99B0F6" stroke-width="2" stroke-linecap="round" stroke-linejoin="round"/>
<path d="M20 4V22" stroke="#99B0F6" stroke-width="2" stroke-linecap="round" stroke-linejoin="round"/>
<path d="M20 32V36" stroke="#99B0F6" stroke-width="2" stroke-linecap="round" stroke-linejoin="round"/>
<path d="M34 8H30C28.8954 8 28 8.89543 28 10V18C28 19.1046 28.8954 20 30 20H34C35.1046 20 36 19.1046 36 18V10C36 8.89543 35.1046 8 34 8Z" stroke="#99B0F6" stroke-width="2" stroke-linecap="round" stroke-linejoin="round"/>
<path d="M32 4V8" stroke="#99B0F6" stroke-width="2" stroke-linecap="round" stroke-linejoin="round"/>
<path d="M32 20V36" stroke="#99B0F6" stroke-width="2" stroke-linecap="round" stroke-linejoin="round"/>
</svg>
