<svg width="40" height="40" viewBox="0 0 40 40" fill="none" xmlns="http://www.w3.org/2000/svg">
<path d="M23.35 4.634C22.498 1.122 17.502 1.122 16.65 4.634C16.098 6.904 13.506 7.98 11.506 6.764C8.418 4.884 4.886 8.418 6.766 11.504C7.0486 11.9675 7.21777 12.4912 7.25974 13.0324C7.3017 13.5737 7.21528 14.1172 7.00749 14.6187C6.79971 15.1202 6.47644 15.5656 6.064 15.9186C5.65156 16.2716 5.1616 16.5222 4.634 16.65C1.122 17.502 1.122 22.498 4.634 23.35C5.16113 23.4782 5.65057 23.7289 6.06255 24.0819C6.47452 24.4348 6.7974 24.88 7.00494 25.3812C7.21249 25.8825 7.29883 26.4256 7.25697 26.9665C7.2151 27.5073 7.0462 28.0307 6.764 28.494C4.884 31.582 8.418 35.114 11.504 33.234C11.9675 32.9514 12.4912 32.7822 13.0324 32.7403C13.5737 32.6983 14.1172 32.7847 14.6187 32.9925C15.1202 33.2003 15.5656 33.5236 15.9186 33.936C16.2716 34.3484 16.5222 34.8384 16.65 35.366C17.502 38.878 22.498 38.878 23.35 35.366" stroke="#7D5FFF" strokeWidth="2" strokeLinecap="round" strokeLinejoin="round"/>
<path d="M36 22C37.1046 22 38 21.1046 38 20C38 18.8954 37.1046 18 36 18C34.8954 18 34 18.8954 34 20C34 21.1046 34.8954 22 36 22Z" stroke="#7D5FFF" strokeWidth="2" strokeLinecap="round" strokeLinejoin="round"/>
<path d="M20 20L34 20" stroke="#7D5FFF" strokeWidth="2" strokeLinecap="round" strokeLinejoin="round"/>
<path d="M28 12L26 14H20C16.6863 14 14 16.6863 14 20C14 23.3137 16.6863 26 20 26H26L28 28" stroke="#7D5FFF" strokeWidth="2" strokeLinecap="round" strokeLinejoin="round"/>
<path d="M28 10C28 11.1046 28.8954 12 30 12C31.1046 12 32 11.1046 32 10C32 8.89543 31.1046 8 30 8C28.8954 8 28 8.89543 28 10Z" stroke="#7D5FFF" strokeWidth="2" strokeLinecap="round" strokeLinejoin="round"/>
<path d="M30 28C28.8954 28 28 28.8954 28 30C28 31.1046 28.8954 32 30 32C31.1046 32 32 31.1046 32 30C32 28.8954 31.1046 28 30 28Z" stroke="#7D5FFF" strokeWidth="2" strokeLinecap="round" strokeLinejoin="round"/>
</svg>
