<svg width="49" height="48" viewBox="0 0 49 48" fill="none" xmlns="http://www.w3.org/2000/svg">
<path d="M22.1796 46.1545C22.1796 47.174 23.0072 48 24.0279 48C25.0487 48 25.8763 47.174 25.8763 46.1545C25.8763 45.1347 25.0487 44.3072 24.0279 44.3072C23.0072 44.3072 22.1796 45.1347 22.1796 46.1545ZM21.2556 36C21.2556 37.5295 22.4967 38.7685 24.0279 38.7685C25.5592 38.7685 26.8003 37.5295 26.8003 36C26.8003 34.4705 25.5592 33.2317 24.0279 33.2317C22.4967 33.2317 21.2556 34.4705 21.2556 36ZM3.69665 24C3.69665 22.9804 2.86909 22.1544 1.84833 22.1544C0.827606 22.1544 0 22.9804 0 24C0 25.0196 0.827606 25.8456 1.84833 25.8456C2.86909 25.8456 3.69665 25.0196 3.69665 24ZM14.7865 12C14.7865 10.4705 13.5451 9.22991 12.0139 9.22991C10.4828 9.22991 9.24148 10.4705 9.24148 12C9.24148 13.5295 10.4828 14.7683 12.0139 14.7683C13.5451 14.7683 14.7865 13.5295 14.7865 12ZM14.7865 24C14.7865 22.4705 13.5451 21.2299 12.0139 21.2299C10.4828 21.2299 9.24148 22.4705 9.24148 24C9.24148 25.5295 10.4828 26.7686 12.0139 26.7686C13.5451 26.7686 14.7865 25.5295 14.7865 24ZM14.7865 36C14.7865 34.4705 13.5451 33.2317 12.0139 33.2317C10.4828 33.2317 9.24148 34.4705 9.24148 36C9.24148 37.5295 10.4828 38.7685 12.0139 38.7685C13.5451 38.7685 14.7865 37.5295 14.7865 36ZM25.8763 1.84552C25.8763 0.825973 25.0487 0 24.0279 0C23.0072 0 22.1796 0.825973 22.1796 1.84552C22.1796 2.86535 23.0072 3.69132 24.0279 3.69132C25.0487 3.69132 25.8763 2.86535 25.8763 1.84552ZM26.8003 12C26.8003 10.4705 25.5592 9.22991 24.0279 9.22991C22.4967 9.22991 21.2556 10.4705 21.2556 12C21.2556 13.5295 22.4967 14.7683 24.0279 14.7683C25.5592 14.7683 26.8003 13.5295 26.8003 12ZM27.7246 24C27.7246 21.9606 26.0694 20.3069 24.0279 20.3069C21.9864 20.3069 20.3312 21.9606 20.3312 24C20.3312 26.0394 21.9864 27.6931 24.0279 27.6931C26.0694 27.6931 27.7246 26.0394 27.7246 24ZM38.8144 12C38.8144 10.4705 37.573 9.22991 36.042 9.22991C34.5108 9.22991 33.2694 10.4705 33.2694 12C33.2694 13.5295 34.5108 14.7683 36.042 14.7683C37.573 14.7683 38.8144 13.5295 38.8144 12ZM38.8144 24C38.8144 22.4705 37.573 21.2299 36.042 21.2299C34.5108 21.2299 33.2694 22.4705 33.2694 24C33.2694 25.5295 34.5108 26.7686 36.042 26.7686C37.573 26.7686 38.8144 25.5295 38.8144 24ZM48.0559 24C48.0559 22.9804 47.2283 22.1544 46.2075 22.1544C45.1868 22.1544 44.3592 22.9804 44.3592 24C44.3592 25.0196 45.1868 25.8456 46.2075 25.8456C47.2283 25.8456 48.0559 25.0196 48.0559 24Z" fill="#7D5FFF"/>
</svg>
