<svg width="418" height="357" viewBox="0 0 418 357" fill="none" xmlns="http://www.w3.org/2000/svg">
<path d="M16.49 215.005L16.4921 215.001L150.244 0.5H216.133L129.428 187.685L129.235 188.101L129.633 188.329C157.608 204.352 176.246 233.719 176.246 267.079C176.246 315.134 137.624 356.5 88.3732 356.5C39.1224 356.5 0.5 315.134 0.5 267.079C0.5 247.064 7.15518 229.708 16.49 215.005ZM217.574 215.005L217.576 215.001L351.328 0.5H417.217L330.512 187.685L330.319 188.101L330.717 188.329C358.693 204.352 377.33 233.719 377.33 267.079C377.33 315.134 338.708 356.5 289.457 356.5C240.206 356.5 201.584 315.134 201.584 267.079C201.584 247.064 208.239 229.708 217.574 215.005Z" stroke="#1E1A34" stroke-opacity="0.15"/>
</svg>
