<svg width="107" height="22" viewBox="0 0 107 22" fill="none" xmlns="http://www.w3.org/2000/svg">
<path d="M73.2408 7.5139H70.7954V21.7147H73.2408V7.5139ZM11.7292 13.3362H2.85725C3.31222 10.5524 5.38794 9.38841 7.40676 9.38841C9.53956 9.38841 11.2742 10.6954 11.7292 13.3362ZM14.3166 15.2686C14.6296 10.8652 11.985 7.23004 7.49215 7.23004C3.0278 7.23004 0.269531 10.4386 0.269531 14.6142C0.269531 18.8459 3.28368 21.9986 7.4353 21.9986C11.0466 21.9986 13.4068 19.8979 14.0893 17.398H11.5869C10.7053 19.1026 9.25513 19.7841 7.46384 19.7841C4.87612 19.7841 2.82871 17.8517 2.74337 15.2686H14.3166ZM27.4447 21.7147H29.8617V12.9675C29.8617 9.44451 27.6721 7.23004 24.4874 7.23004C22.6391 7.23004 20.9612 7.99642 19.966 9.70098V7.5139H17.5205V21.7147H19.966V14.6721C19.966 11.3479 21.8143 9.47346 24.0893 9.47346C26.1081 9.47346 27.4447 10.9503 27.4447 13.3362V21.7147ZM50.9876 21.7147H53.4331V7.5139H50.9876V14.5583C50.9876 17.8245 49.2247 19.7552 47.035 19.7552C45.073 19.7552 43.8218 18.2494 43.8218 15.865V7.5139H36.9789V6.0658C36.9789 4.24744 37.7466 3.65097 39.339 3.65097H41.3764V1.40754H38.884C36.3817 1.40754 34.5334 2.85564 34.5334 5.80934V7.5139H31.5192V9.75713H34.5334V21.7147H36.9789V9.75713H41.3764V16.2339C41.3764 19.7552 43.5091 21.9986 46.6084 21.9986C48.4284 21.9986 50.0492 21.2031 50.9876 19.5274V21.7147ZM59.5407 11.0351C59.5407 9.92873 60.6213 9.27441 61.9862 9.27441C63.3227 9.27441 64.3463 10.041 64.7161 11.2918H67.1616C66.934 9.0197 65.0005 7.23004 61.9862 7.23004C59.1428 7.23004 57.0668 8.70689 57.0668 11.0641C57.0668 13.1084 58.2612 14.5855 60.735 15.2396L62.7824 15.7784C64.4885 16.2339 65.1425 16.9155 65.1425 18.0506C65.1425 19.3014 63.9767 19.9251 62.4128 19.9251C60.9626 19.9251 59.427 19.3286 59.1143 17.5968H56.6119C56.8393 20.4656 59.3133 21.9986 62.3843 21.9986C65.3416 21.9986 67.6165 20.7206 67.6165 17.8807C67.6165 15.7223 66.3654 14.2744 63.9767 13.678L61.702 13.0812C60.1949 12.6549 59.5407 12.0871 59.5407 11.0351ZM73.8663 2.52935C73.8663 1.50957 73.0387 0.683594 72.018 0.683594C70.9972 0.683594 70.1696 1.50957 70.1696 2.52935C70.1696 3.54895 70.9972 4.37492 72.018 4.37492C73.0387 4.37492 73.8663 3.54895 73.8663 2.52935ZM88.7891 14.6142C88.7891 17.4541 86.8271 19.7263 83.8698 19.7263C80.9125 19.7263 78.922 17.4541 78.922 14.6142C78.922 11.7745 80.9125 9.50217 83.8698 9.50217C86.8271 9.50217 88.7891 11.7745 88.7891 14.6142ZM91.2915 14.6142C91.2915 10.5253 88.1351 7.23004 83.8698 7.23004C79.5474 7.23004 76.4196 10.5253 76.4196 14.6142C76.4196 18.7049 79.5474 21.9986 83.8698 21.9986C88.1351 21.9986 91.2915 18.7049 91.2915 14.6142ZM106.811 21.7147V12.9675C106.811 9.44451 104.622 7.23004 101.437 7.23004C99.5888 7.23004 97.911 7.99642 96.9158 9.70098V7.5139H94.4702V21.7147H96.9158V14.6721C96.9158 11.3479 98.7641 9.47346 101.039 9.47346C103.058 9.47346 104.394 10.9503 104.394 13.3362V21.7147H106.811Z" fill="white"/>
</svg>
