<?xml version="1.0" encoding="utf-8"?>
<!-- Generator: Adobe Illustrator 25.1.0, SVG Export Plug-In . SVG Version: 6.00 Build 0)  -->
<svg version="1.1" id="Layer_1" xmlns="http://www.w3.org/2000/svg" xmlns:xlink="http://www.w3.org/1999/xlink" x="0px" y="0px"
	 viewBox="0 0 263.1 108.4" style="enable-background:new 0 0 263.1 108.4;" xml:space="preserve">
<style type="text/css">
	.st0{fill:#2D2A2B;}
	.st1{opacity:0.75;}
	.st2{fill:#404041;}
</style>
<path class="st0" d="M118.4,71.7h-12.9c-0.2,0-0.4-0.2-0.4-0.4V9.9c0-0.2,0.2-0.4,0.4-0.4h12.9c0.2,0,0.4,0.2,0.4,0.4v61.3
	C118.9,71.5,118.7,71.7,118.4,71.7z"/>
<path class="st0" d="M138.4,71.7h-9.7c-1.1,0-2-0.9-2-2V11.5c0-1.1,0.9-2,2-2h9.7c1.1,0,2,0.9,2,2v9.4c0,1.1-0.9,2-2,2h-8.9
	l10.4,9.5c0.4,0.4,0.6,0.9,0.6,1.4v35.8C140.5,70.8,139.5,71.7,138.4,71.7z"/>
<g>
	<path class="st0" d="M40.6,50.4c-1.6-1.8-3.4-3.2-5.4-4.3c-2-1.1-3.9-1.8-5.7-2.3c-5.4-1.7-9-3.5-8.8-6.5c0.1-2.1,1.9-3.8,4.1-3.8
		c1.7,0,3.1,1,3.7,2.4c0.2,0.5,0.4,1.8,0.4,1.8h11.8c0.7,0,1.3-0.6,1.2-1.3c-0.6-3.1-2.2-5.9-4.9-8.3c-3.4-3-7.6-4.5-12.4-4.5
		c-4.8,0-9,1.5-12.4,4.5c-3.4,3-5.1,6.6-5.1,10.8c0,2.8,0.5,5.5,2.1,7.4c1.5,1.8,3.3,3.3,5.2,4.5c1.9,1.1,3.8,1.9,5.5,2.4
		c1.6,0.5,2.6,0.8,2.9,0.9c5.8,1.5,6.1,3.9,6,5.1c0,2.3-2.2,4.2-4.7,4.2s-4.9-1.9-4.9-4.2c0-0.4,0-1.1,0-1.1H7.3
		c-0.6,0-1.1,0.5-1,1.1c0.3,3.7,2,6.9,5.1,9.6c3.4,3,7.6,4.5,12.4,4.5c4.8,0,9.9-1.3,13.3-4.3c3.4-3,5.6-6.9,5.6-11.1
		C42.7,55,42.3,52.3,40.6,50.4z"/>
</g>
<g>
	<path class="st0" d="M179.3,57.4c-2,1.8-4.4,2.6-7,2.7c-3.2,0.2-7.8-1.6-9.9-4.1c-1.8-2.1-2.7-4.5-2.7-7.4c0-3.2,1.1-5.8,3.4-8.1
		c2.1-2.1,4.8-3.3,7.8-3.4c2.4-0.1,4.5,0.5,6.3,1.7c0.6,0.4,1.9,1.4,2.6,2.2c0.4,0.5,0.8,0.1,0.8,0.1l8-8.2c0.6-0.6,0.6-1.5,0-2.1
		c-1.4-1.3-3.6-3.1-5-3.9c-3.7-2.2-7.8-3.2-12.2-3.3c-6.7,0-13.1,2.6-17.8,7.3c-5,5-7.5,11.2-7.3,18.3c0.1,6.4,2.8,12.4,7.3,16.9
		c4.9,4.9,10.8,7.3,17.6,7.3c7.3,0,13.5-2.8,18.6-8.3c0.1-0.2,0.2-0.4,0-0.6c-1.2-1.4-6.3-7.2-8-9c-0.3-0.4-0.7-0.3-0.9-0.1
		C180.3,56.3,179.4,57.4,179.3,57.4z"/>
</g>
<g>
	<path class="st0" d="M241.6,42.4c-1.1-4.2-3.3-7.9-6.5-11.2c-3.3-3.3-7-5.4-11.2-6.5c-0.1,0-0.3-0.1-0.4-0.1c0,0,0,0,0,0
		c-0.3-0.1-0.5-0.1-0.8-0.2c-1.7-0.4-3.5-0.5-5.3-0.5c-6.8,0-12.8,2.5-17.6,7.3c-3.3,3.3-5.4,7-6.5,11.2c-0.5,2-0.8,4.2-0.8,6.4
		c0,1.2,0.1,2.4,0.2,3.6c0.7,5.4,3.1,10.1,7.1,14.1c4.9,4.9,10.8,7.3,17.6,7.3c6.1,0,11.5-2,16.1-5.9c0.3-0.2,1.5-1.4,2.2-2.1
		c0.7-0.7-0.2-1.4-0.2-1.4l-7.6-8.8c0,0-0.2-0.3-0.5,0c-0.4,0.4-1.2,1.3-1.7,1.8c-2.3,2.3-5.1,3.1-8.3,3.1c-3.2,0-5.9-1.1-8.1-3.4
		c-1.4-1.4-2.3-2.9-2.8-4.6h32.4h2.6c0,0,1,0.2,1-0.8c0.1-0.8,0.2-1.9,0.2-2.7C242.4,46.5,242.1,44.4,241.6,42.4z M206.6,42.5
		c2-4.1,6.2-6.8,11-6.8c3.4,0,6.5,1.3,8.8,3.7l0.9,1c0.3,0.3,0.5,0.7,0.8,1c0.2,0.4,0.4,0.8,0.6,1.1H206.6z"/>
</g>
<path class="st0" d="M77.2,22.3c-7,0-11.5,3.4-14.8,7.9l0-5.4c0-1-0.8-1.8-1.8-1.8h-9.9c-1.1,0-2,0.9-2,2v58.2c0,1.1,0.9,2,2,2h9.7
	c1.1,0,2-0.9,2-2l0-18.8c3.2,3.8,7.6,7.1,14.8,7.1c11.2,0,21.6-8.7,21.6-24.5v-0.2C98.7,31,88.2,22.3,77.2,22.3z M85.3,47
	C85.3,54.9,80,60,73.7,60c-5.7,0-10.5-3.7-11.3-10.3V44c0.8-6.7,5.7-10.3,11.3-10.3c6.3,0,11.6,5.2,11.6,13.1V47z"/>
<path class="st0" d="M249.9,33c-3.8,0-6.9-3.1-6.9-6.9s3.1-6.9,6.9-6.9s6.9,3.1,6.9,6.9C256.8,29.9,253.7,33,249.9,33z M249.9,20.2
	c-3.3,0-5.9,2.7-5.9,5.9s2.6,5.9,5.9,5.9c3.3,0,5.9-2.7,5.9-5.9S253.2,20.2,249.9,20.2z"/>
<g>
	<path class="st0" d="M247.7,22.8h2.9c0.8,0,1.4,0.2,1.9,0.6c0.3,0.3,0.5,0.8,0.5,1.4v0c0,1.1-0.6,1.7-1.5,1.9l1.7,2.4h-1.3
		l-1.6-2.2h-1.4v2.2h-1.1L247.7,22.8L247.7,22.8z M250.4,26c0.8,0,1.3-0.4,1.3-1.1v0c0-0.7-0.5-1.1-1.3-1.1h-1.6V26
		C248.8,26,250.4,26,250.4,26z"/>
</g>
<g class="st1">
	<path class="st2" d="M80.8,86.3h4.4c1.1,0,2.1,0.1,3.1,0.4c1,0.2,1.8,0.6,2.5,1.2s1.3,1.2,1.7,2.1s0.6,1.9,0.6,3.1
		c0,1.1-0.2,2.1-0.6,2.9c-0.4,0.8-1,1.5-1.7,2.1c-0.7,0.6-1.5,1-2.4,1.3s-1.9,0.4-2.9,0.4h-4.8L80.8,86.3L80.8,86.3z M83.8,97h1.5
		c0.7,0,1.3-0.1,1.9-0.2c0.6-0.1,1.1-0.4,1.5-0.7s0.8-0.8,1-1.3c0.2-0.5,0.4-1.2,0.4-1.9c0-0.7-0.1-1.2-0.4-1.7s-0.6-0.9-1-1.2
		c-0.4-0.3-0.9-0.6-1.5-0.7s-1.2-0.2-1.8-0.2h-1.7L83.8,97L83.8,97z"/>
	<path class="st2" d="M100.9,86.3h3v13.4h-3V86.3z"/>
	<path class="st2" d="M124.4,98.8c-0.9,0.5-1.8,0.8-2.7,1s-1.9,0.3-2.9,0.3c-1.1,0-2-0.2-2.9-0.5c-0.9-0.3-1.7-0.8-2.3-1.4
		c-0.7-0.6-1.2-1.4-1.5-2.2s-0.5-1.8-0.5-2.9s0.2-2.1,0.5-2.9s0.9-1.6,1.5-2.2s1.4-1.1,2.3-1.4c0.9-0.3,1.9-0.5,2.9-0.5
		c1.1,0,2.1,0.1,3,0.4c0.9,0.3,1.7,0.7,2.4,1.3L122,90c-0.4-0.4-0.9-0.7-1.4-0.9c-0.5-0.2-1.1-0.3-1.9-0.3c-0.6,0-1.2,0.1-1.7,0.3
		s-0.9,0.5-1.3,0.9c-0.4,0.4-0.6,0.8-0.8,1.4c-0.2,0.5-0.3,1.1-0.3,1.7c0,0.6,0.1,1.2,0.3,1.7c0.2,0.5,0.5,1,0.8,1.4
		c0.4,0.4,0.8,0.7,1.3,0.9c0.5,0.2,1.1,0.3,1.7,0.3c0.6,0,1.2-0.1,1.7-0.2c0.5-0.1,0.8-0.3,1.1-0.4v-2.2h-2.4v-2.7h5.3L124.4,98.8
		L124.4,98.8z"/>
	<path class="st2" d="M132.6,86.3h3v13.4h-3V86.3z"/>
	<path class="st2" d="M146.6,88.9h-3.8v-2.6h10.6v2.6h-3.8v10.8h-3L146.6,88.9L146.6,88.9z"/>
	<path class="st2" d="M163.2,86.3h2.4l5.8,13.4h-3.3l-1.2-2.9h-5.2l-1.1,2.9h-3.3L163.2,86.3z M164.4,90.2l-1.6,4.2h3.3L164.4,90.2z
		"/>
	<path class="st2" d="M178.7,86.3h3V97h5.5v2.7h-8.4V86.3z"/>
</g>
</svg>
